<svg width="150" height="150" viewBox="0 0 150 150" fill="none" xmlns="http://www.w3.org/2000/svg">
<path d="M37.367 20.0188C33.8357 21.9885 30.3339 24.4128 27.8664 28.2006C25.3989 31.9885 24.1578 37.4241 25.6501 41.9885C27.63 48.0681 33.8948 51.6097 33.9243 58.2006C33.9391 62.9165 30.5408 66.515 27.1129 68.2385C23.685 69.962 19.8877 70.5681 16.7701 73.087C12.0567 76.8749 9.8552 84.2044 8.9539 91.2309C8.02305 98.5226 8.39243 106.837 12.4261 112.14C17.435 118.712 25.7092 117.973 32.8014 116.572C42.2577 114.697 51.6696 112.5 61.0963 110.303C81.7376 105.473 102.379 100.663 123.005 95.8332C125.222 95.3218 127.527 94.7537 129.314 93.0112C132.89 89.5643 133.186 82.462 131.117 77.4052C129.048 72.3294 125.207 68.8825 121.395 65.909C117.583 62.9355 113.549 60.1135 110.697 55.7006C107.846 51.2878 106.427 44.7726 108.585 39.7726C110.417 35.5302 114.347 33.2575 116.061 28.9393C118.322 23.2385 115.721 15.9658 111.613 12.3294C107.491 8.6552 55.9988 9.56429 37.367 20.0188Z" fill="#F7F7F7"/>
<path d="M26.8174 48.3333C36.9116 48.3333 45.0946 37.8443 45.0946 24.9053C45.0946 11.9664 36.9116 1.47729 26.8174 1.47729C16.7232 1.47729 8.54019 11.9664 8.54019 24.9053C8.54019 37.8443 16.7232 48.3333 26.8174 48.3333Z" stroke="#D3D3D3" stroke-miterlimit="10" stroke-dasharray="12.14 12.14"/>
<path d="M144.696 149.432H2.11288C1.04905 149.432 0.192078 148.314 0.192078 146.97V132.292C0.192078 130.928 1.06383 129.83 2.11288 129.83H144.696C145.759 129.83 146.616 130.947 146.616 132.292V146.97C146.616 148.314 145.745 149.432 144.696 149.432Z" fill="#F2F2F2"/>
<path d="M126.596 27.0835V93.5608C126.596 94.8108 125.798 95.8335 124.823 95.8335H21.9858C21.0106 95.8335 20.2128 94.8108 20.2128 93.5608V27.0835C20.2128 25.8335 21.0106 24.8108 21.9858 24.8108H124.823C125.798 24.8108 126.596 25.8335 126.596 27.0835Z" fill="#DCF2FF"/>
<path d="M126.596 27.0835V31.8184H20.2128V27.0835C20.2128 25.8335 21.0106 24.8108 21.9858 24.8108H124.823C125.798 24.8108 126.596 25.8335 126.596 27.0835Z" fill="#2A94F4"/>
<path d="M60.6974 36.3638H23.4633V39.9622H60.6974V36.3638Z" fill="white"/>
<path d="M106.797 49.2424H69.5627V52.8409H106.797V49.2424Z" fill="white"/>
<path d="M90.5437 55.6819H23.4633V59.2804H90.5437V55.6819Z" fill="white"/>
<path d="M84.4858 42.803H23.4633V46.4015H84.4858V42.803Z" fill="white"/>
<path d="M78.2801 36.3638H62.766V39.9622H78.2801V36.3638Z" fill="#786B56"/>
<path d="M60.6974 68.5605H23.4633V72.159H60.6974V68.5605Z" fill="white"/>
<path d="M78.2801 68.5605H62.766V72.159H78.2801V68.5605Z" fill="#786B56"/>
<path d="M108.422 42.803H85.9633V46.4015H108.422V42.803Z" fill="#786B56"/>
<path d="M50.5024 62.1213H23.6111V65.7198H50.5024V62.1213Z" fill="#786B56"/>
<path d="M67.4941 49.2424H23.4633V52.8409H67.4941V49.2424Z" fill="#786B56"/>
<path d="M85.2689 129.621H62.7216V136.25H85.2689V129.621Z" fill="#072C3D"/>
<path d="M57.2693 137.255C61.1109 138.464 75.2805 140.453 82.3284 141.383C83.8946 141.587 85.1062 141.755 85.7858 141.829C86.1552 141.885 86.3621 141.904 86.3621 141.904C86.3621 141.904 88.209 141.755 90.4549 141.606C92.5234 141.457 97.2959 141.495 98.9507 141.42C99.5713 141.402 99.7781 140.342 99.2462 139.951C98.2711 139.245 94.1783 137.144 92.1688 136.828C90.9277 136.642 89.5683 135.229 88.4897 134.448C87.6623 133.834 86.7167 134.894 85.9631 135.247C85.5938 135.415 85.3278 136.456 84.9141 136.493C84.8107 136.512 84.7072 136.512 84.6038 136.53C84.0867 136.567 83.54 136.53 83.0228 136.456C82.8751 136.437 82.7421 136.4 82.5943 136.381C80.9543 136.065 79.5949 135.396 79.5949 135.396C74.5713 132.124 63.5193 123.366 54.92 125.672C54.8461 125.69 54.7722 125.709 54.7131 125.728C54.6393 125.746 54.5654 125.765 54.5063 125.783C45.8479 128.554 52.0979 135.619 57.2693 137.255Z" fill="#FCD2B1"/>
<path d="M57.2695 137.255C61.1111 138.464 75.2807 140.453 82.3286 141.383L83.6141 132.031C83.3629 131.975 83.0969 131.956 82.831 131.956C80.1123 131.919 77.4232 131.212 74.9114 129.874C69.2081 126.806 61.1407 123.719 54.4917 125.802C45.8481 128.554 52.0981 135.619 57.2695 137.255Z" fill="#A47419"/>
<path d="M88.0467 134.671C88.0467 133.741 88.9332 133.183 88.9332 133.183L95.8186 136.381L99.5715 138.947L100.31 140.249L99.4238 141.085L91.7405 139.691L89.2287 137.832L88.0467 134.671Z" fill="#666666"/>
<path d="M84.6831 136.716L85.8799 142.015C86.2493 142.071 86.4561 142.089 86.4561 142.089C86.4561 142.089 88.3031 141.941 90.5489 141.792C92.6175 141.643 97.3899 141.68 99.0448 141.606C99.6653 141.587 99.8722 140.527 99.3403 140.137C98.3651 139.43 94.2723 137.329 92.2629 137.013C91.0217 136.827 89.6624 135.414 88.5838 134.633C87.7564 134.02 86.8107 135.08 86.0572 135.433C85.6878 135.6 85.4218 136.641 85.0081 136.679C84.8899 136.716 84.7865 136.716 84.6831 136.716Z" fill="#666666"/>
<path d="M89.7015 104.792L88.7707 95.966C88.2979 91.5342 85.5644 88.2388 82.3286 88.2388H76.0638C75.1625 88.2388 73.685 88.2388 72.7837 88.2388H66.5189C63.2831 88.2388 60.5496 91.5342 60.0768 95.966L59.146 104.792C58.422 111.724 61.4509 118.352 66.2973 120.379L72.7689 123.087C73.6702 123.087 74.409 122.065 74.409 120.815C74.409 122.065 75.1478 123.087 76.0491 123.087L82.5207 120.379C87.3818 118.352 90.4255 111.724 89.7015 104.792Z" fill="#2A94F4"/>
<path d="M81.1568 80.4305C81.4189 79.5511 81.1679 78.6113 80.5963 78.3313C80.0246 78.0513 79.3486 78.5372 79.0865 79.4166C78.8244 80.2959 79.0754 81.2358 79.6471 81.5157C80.2187 81.7957 80.8947 81.3098 81.1568 80.4305Z" fill="#FFE3CA"/>
<path d="M86.909 128.542L62.2784 127.481L60.727 100.076H88.7855L86.909 128.542Z" fill="#2A94F4"/>
<path d="M71.6903 85.4734L72.503 91.7991L72.5621 91.9506C73.3008 93.9582 75.5467 93.8635 76.182 91.7991L76.8469 85.3787L71.6903 85.4734Z" fill="#FCD2B1"/>
<path d="M80.0975 77.3674C80.0975 85.4167 77.5857 87.0076 74.4977 87.0076C71.4096 87.0076 68.8978 85.4356 68.8978 77.3674C68.8978 72.9924 71.4096 69.4508 74.4977 69.4508C77.5857 69.4318 80.0975 72.9924 80.0975 77.3674Z" fill="#FFE3CA"/>
<path d="M71.1584 75.3599C73.6702 77.1212 76.4037 78.3712 79.2258 79.053C80.3339 79.3182 82.9049 77.6326 83.5993 76.5152C84.3529 75.322 81.5308 75.3788 80.9397 74.053C80.0975 72.178 79.2553 69.7159 77.8369 68.5606C76.4185 67.4053 74.3203 68.5227 72.6655 68.9394C71.188 69.3182 70.7447 68.6742 69.5627 69.8864C68.5875 70.8902 67.9817 72.8599 67.6419 74.3939C67.302 75.928 67.7453 79.1856 68.9716 79.5455C69.2672 77.2727 69.9764 76.6856 70.3014 75.5682L71.1584 75.3599Z" fill="#111619"/>
<path d="M69.5152 81.5178C70.0868 81.2378 70.3378 80.298 70.0757 79.4186C69.8136 78.5393 69.1376 78.0534 68.5659 78.3334C67.9943 78.6134 67.7433 79.5532 68.0054 80.4326C68.2675 81.3119 68.9435 81.7978 69.5152 81.5178Z" fill="#FFE3CA"/>
<path d="M73.094 82.3865H70.2867C69.8286 82.3865 69.4592 81.9131 69.4592 81.3259V80.2464C69.4592 79.6593 69.8286 79.1858 70.2867 79.1858H73.094C73.552 79.1858 73.9214 79.6593 73.9214 80.2464V81.3259C73.9214 81.9131 73.552 82.3865 73.094 82.3865Z" stroke="#1A1F22" stroke-width="2" stroke-miterlimit="10"/>
<path d="M78.7086 82.3865H75.9013C75.4433 82.3865 75.0739 81.9131 75.0739 81.3259V80.2464C75.0739 79.6593 75.4433 79.1858 75.9013 79.1858H78.7086C79.1667 79.1858 79.5361 79.6593 79.5361 80.2464V81.3259C79.5361 81.9131 79.1667 82.3865 78.7086 82.3865Z" stroke="#1A1F22" stroke-width="2" stroke-miterlimit="10"/>
<path d="M73.9214 80.7767C74.3351 80.4926 74.6306 80.3032 75.0739 80.7767" stroke="#1A1F22" stroke-width="2" stroke-miterlimit="10"/>
<path d="M86.1702 131.97H62.4261C61.7021 131.97 61.0964 131.212 61.0964 130.265L60.4315 109.678C60.4315 108.75 61.0225 107.973 61.7612 107.973H86.8351C87.5591 107.973 88.1649 108.731 88.1649 109.678L87.5 130.265C87.4853 131.212 86.8942 131.97 86.1702 131.97Z" fill="#E2FAB0"/>
<path d="M74.2465 123.201C75.6337 123.201 76.7583 121.759 76.7583 119.981C76.7583 118.203 75.6337 116.761 74.2465 116.761C72.8592 116.761 71.7346 118.203 71.7346 119.981C71.7346 121.759 72.8592 123.201 74.2465 123.201Z" fill="#634D4D"/>
<path d="M93.2476 137.481C89.406 138.712 75.2364 140.739 68.1886 141.686C66.6224 141.894 65.4108 142.064 64.7311 142.14C64.3617 142.197 64.1549 142.216 64.1549 142.216C64.1549 142.216 62.3079 142.064 60.0621 141.913C57.9935 141.761 53.2211 141.799 51.5662 141.723C50.9457 141.704 50.7388 140.625 51.2707 140.227C52.2459 139.508 56.3387 137.367 58.3481 137.045C59.5893 136.856 60.9486 135.417 62.0272 134.621C62.8546 133.996 63.8003 135.076 64.5538 135.436C64.9232 135.606 65.1891 136.667 65.6029 136.704C65.7063 136.723 65.8097 136.723 65.9131 136.742C66.4303 136.78 66.977 136.742 67.4941 136.667C67.6419 136.648 67.7748 136.61 67.9226 136.591C69.5627 136.269 70.922 135.587 70.922 135.587C75.9456 132.254 86.9977 123.333 95.5969 125.682C95.6708 125.701 95.7447 125.72 95.8038 125.739C95.8777 125.758 95.9515 125.776 96.0107 125.795C104.669 128.617 98.419 135.814 93.2476 137.481Z" fill="#FCD2B1"/>
<path d="M93.2476 137.481C89.406 138.712 75.2364 140.739 68.1885 141.685L66.9031 132.159C67.1543 132.102 67.4202 132.083 67.6862 132.083C70.4048 132.045 73.094 131.326 75.6058 129.962C81.3091 126.837 89.3765 123.693 96.0254 125.814C104.669 128.617 98.419 135.814 93.2476 137.481Z" fill="#A47419"/>
<path d="M62.4702 134.848C62.4702 133.901 61.5837 133.333 61.5837 133.333L54.6983 136.591L50.9454 139.204L50.2066 140.53L51.0931 141.383L58.7763 139.962L61.2881 138.068L62.4702 134.848Z" fill="#666666"/>
<path d="M65.9279 136.742L64.7311 142.14C64.3617 142.197 64.1549 142.216 64.1549 142.216C64.1549 142.216 62.3079 142.064 60.0621 141.913C57.9935 141.761 53.2211 141.799 51.5662 141.723C50.9457 141.704 50.7388 140.625 51.2707 140.227C52.2459 139.507 56.3387 137.367 58.3481 137.045C59.5893 136.856 60.9486 135.416 62.0272 134.621C62.8546 133.996 63.8003 135.076 64.5538 135.435C64.9232 135.606 65.1891 136.666 65.6029 136.704C65.7358 136.742 65.8393 136.742 65.9279 136.742Z" fill="#666666"/>
<path d="M132.063 11.3635H102.807C99.3203 11.3635 96.4539 15.4166 96.4539 20.3597C96.4539 24.8862 98.8328 28.6552 101.906 29.2612L101.995 33.2196L105.053 29.3559H132.063C135.55 29.3559 138.416 25.3029 138.416 20.3597C138.416 15.4166 135.564 11.3635 132.063 11.3635Z" fill="#3EC97E"/>
<path d="M109.9 23.4848C111.124 23.4848 112.116 22.2129 112.116 20.6439C112.116 19.0749 111.124 17.803 109.9 17.803C108.676 17.803 107.683 19.0749 107.683 20.6439C107.683 22.2129 108.676 23.4848 109.9 23.4848Z" fill="white"/>
<path d="M117.435 23.4848C118.659 23.4848 119.651 22.2129 119.651 20.6439C119.651 19.0749 118.659 17.803 117.435 17.803C116.211 17.803 115.219 19.0749 115.219 20.6439C115.219 22.2129 116.211 23.4848 117.435 23.4848Z" fill="white"/>
<path d="M124.97 23.4848C126.195 23.4848 127.187 22.2129 127.187 20.6439C127.187 19.0749 126.195 17.803 124.97 17.803C123.746 17.803 122.754 19.0749 122.754 20.6439C122.754 22.2129 123.746 23.4848 124.97 23.4848Z" fill="white"/>
<path d="M26.1968 110.985C32.7658 110.985 38.091 104.159 38.091 95.7387C38.091 87.3184 32.7658 80.4924 26.1968 80.4924C19.6278 80.4924 14.3026 87.3184 14.3026 95.7387C14.3026 104.159 19.6278 110.985 26.1968 110.985Z" fill="#3EC97E"/>
<path d="M17.9669 96.6857V95.8524C17.9669 95.4357 18.159 95.0759 18.4545 94.9244L21.7346 93.2577C22.2518 92.9925 22.7985 93.4849 22.7985 94.1857C22.7985 94.6213 22.5916 95.0001 22.2666 95.1327L19.6218 96.269L22.2666 97.4054C22.5916 97.538 22.7985 97.9168 22.7985 98.3524V98.3713C22.7985 99.0721 22.237 99.5645 21.7346 99.2994L18.4545 97.6327C18.1738 97.4622 17.9669 97.1024 17.9669 96.6857Z" fill="white"/>
<path d="M27.9551 90.7009C28.4574 90.7009 28.7825 91.3638 28.5609 91.9509L24.8966 101.78C24.7784 102.083 24.542 102.273 24.2908 102.273C23.7884 102.273 23.4634 101.61 23.685 101.023L27.3493 91.1933C27.4675 90.8903 27.7039 90.7009 27.9551 90.7009Z" fill="white"/>
<path d="M30.1123 97.4244L32.7571 96.288L30.1123 95.1516C29.802 95.0191 29.5804 94.6403 29.5804 94.2047V94.1857C29.5804 93.4849 30.1419 92.9925 30.6442 93.2577L33.9244 94.9244C34.2199 95.0759 34.4119 95.4357 34.4119 95.8524V96.6857C34.4119 97.1024 34.2199 97.4622 33.9244 97.6138L30.6442 99.2804C30.1271 99.5456 29.5804 99.0531 29.5804 98.3524C29.5804 97.9357 29.802 97.5569 30.1123 97.4244Z" fill="white"/>
<path d="M137.633 121.61C136.421 114.318 132.654 107.803 127.586 104.167C130.304 110.739 133.54 116.932 137.264 122.652L137.633 121.61Z" fill="#1A87D8"/>
<path d="M138.992 124.337C134.161 115.682 131.738 104.849 132.255 94.2236C135.387 104.034 137.751 114.243 139.303 124.64L138.992 124.337Z" fill="#2A94F4"/>
<path d="M137.603 124.64C137.456 119.318 137.308 113.939 137.958 108.674C138.608 103.409 140.115 98.2008 142.908 94.2424C143.336 105.152 141.268 116.193 137.057 125.682L137.603 124.64Z" fill="#1A87D8"/>
<path d="M137.81 125.114C135.092 115.038 135.535 103.637 139.022 93.9585C141.209 104.072 139.273 114.792 137.337 124.981L137.81 125.114Z" fill="#B0E1FF"/>
<path d="M138.165 121.383C138.918 112.538 143.514 104.413 149.837 100.758C147.281 109.565 142.893 117.5 137.264 123.542L138.165 121.383Z" fill="#2A94F4"/>
<path d="M144.681 119.83L143.898 136.989C143.898 137.822 143.366 138.485 142.73 138.485H133.452C132.801 138.485 132.284 137.803 132.284 136.989L132.107 133.106L131.501 119.83C131.501 118.996 132.033 118.333 132.668 118.333H143.514C143.942 118.333 144.311 118.618 144.518 119.053C144.607 119.28 144.681 119.546 144.681 119.83Z" fill="#CCE9FF"/>
<path d="M144.681 119.83L143.898 136.989C143.898 137.822 143.366 138.485 142.73 138.485H133.452C132.801 138.485 132.284 137.803 132.284 136.989L132.107 133.106C136.436 131.515 140.898 124.659 144.518 119.053C144.607 119.28 144.681 119.546 144.681 119.83Z" fill="#CCE9FF"/>
<path d="M7.09219 127.443C6.29432 122.67 3.8416 118.409 0.517136 116.023C2.29018 120.322 4.41784 124.375 6.85579 128.125L7.09219 127.443Z" fill="#1A87D8"/>
<path d="M7.97872 129.224C4.81678 123.561 3.23582 116.477 3.57565 109.527C5.62943 115.947 7.18085 122.633 8.18558 129.451L7.97872 129.224Z" fill="#2A94F4"/>
<path d="M7.07742 129.432C6.97399 125.947 6.88534 122.424 7.31382 118.977C7.74231 115.53 8.73226 112.121 10.5644 109.527C10.8451 116.667 9.50058 123.902 6.72281 130.114L7.07742 129.432Z" fill="#1A87D8"/>
<path d="M7.2104 129.735C5.42258 123.144 5.71809 115.663 8.00827 109.337C9.44149 115.947 8.1708 122.974 6.90012 129.64L7.2104 129.735Z" fill="#B0E1FF"/>
<path d="M7.44681 127.292C7.93439 121.515 10.9486 116.174 15.0857 113.788C13.4013 119.565 10.5349 124.754 6.85579 128.712L7.44681 127.292Z" fill="#2A94F4"/>
<path d="M11.7021 126.269L11.185 137.5C11.185 138.049 10.8451 138.485 10.4167 138.485H4.34397C3.91548 138.485 3.57564 138.049 3.57564 137.5L3.45744 134.962L3.07328 126.269C3.07328 125.72 3.41311 125.284 3.8416 125.284H10.9486C11.2293 125.284 11.4657 125.474 11.5987 125.758C11.6726 125.909 11.7021 126.099 11.7021 126.269Z" fill="#CCE9FF"/>
<path d="M11.7021 126.269L11.185 137.5C11.185 138.049 10.8451 138.485 10.4167 138.485H4.34397C3.91548 138.485 3.57565 138.049 3.57565 137.5L3.45744 134.962C6.29432 133.92 9.21985 129.432 11.5839 125.758C11.6726 125.909 11.7021 126.098 11.7021 126.269Z" fill="#CCE9FF"/>
</svg>
