<svg width="150" height="150" viewBox="0 0 150 150" fill="none" xmlns="http://www.w3.org/2000/svg">
<path d="M71.6333 150C106.736 150 135.193 116.421 135.193 75C135.193 33.5786 106.736 0 71.6333 0C36.5305 0 8.07397 33.5786 8.07397 75C8.07397 116.421 36.5305 150 71.6333 150Z" fill="#F7F7F7"/>
<path d="M150 132.58C150 135.039 148.311 137.032 146.227 137.032H3.7732C1.68925 137.032 0 135.039 0 132.58C0 130.121 1.68925 128.128 3.7732 128.128H146.227C148.311 128.128 150 130.121 150 132.58Z" fill="#D3D3D3"/>
<path d="M101.206 17.0349C101.233 16.5031 102.013 15.4199 101.894 15.2844C101.808 15.1869 101.505 15.5216 101.341 15.7175C101.322 15.7404 101.293 15.7479 101.268 15.737C101.242 15.7259 101.224 15.6986 101.222 15.6665C101.186 15.1439 101.076 13.6818 100.952 13.6681C100.827 13.6543 100.764 14.5792 100.747 14.8897C100.746 14.8991 100.74 14.9067 100.732 14.9081C100.724 14.9094 100.717 14.9038 100.714 14.8949C100.618 14.5663 100.293 13.5058 100.153 13.6419C100.021 13.7714 100.227 14.7871 100.312 15.1781C100.314 15.1876 100.31 15.1977 100.302 15.2015C100.294 15.2052 100.285 15.2015 100.281 15.1929C100.113 14.8428 99.6705 13.955 99.5511 14.0684C99.4294 14.1841 99.7723 15.1462 99.8991 15.4876C99.9024 15.4966 99.8997 15.5069 99.8928 15.5124C99.8858 15.5176 99.8765 15.5161 99.8711 15.5088C99.6795 15.2534 99.178 14.6026 99.1807 14.7939C99.1842 15.0303 100.065 16.9962 100.354 17.3253C100.643 17.6542 101.206 17.0349 101.206 17.0349Z" fill="#FA968C"/>
<path d="M109.117 23.6152C108.52 25.1767 107.66 26.9503 106.621 28.1675C104.599 30.5291 102.004 29.912 101.098 24.3894C100.941 23.5571 100.831 22.7287 100.738 21.9016C100.55 20.2496 100.477 18.6024 100.412 16.9603C100.403 16.7116 100.566 16.5009 100.776 16.4893C100.967 16.4788 101.132 16.6353 101.168 16.8496L101.17 16.8588C101.444 18.453 101.719 20.0441 102.073 21.5919C102.254 22.3629 102.443 23.1277 102.662 23.865C102.852 24.563 103.617 26.732 104.211 26.9445C104.23 26.9405 104.25 26.9707 104.261 26.9578C104.272 26.9458 104.278 26.9448 104.285 26.9518C104.296 26.9345 104.303 26.9268 104.313 26.9291C104.346 26.8981 104.384 26.8927 104.454 26.8252C104.584 26.7251 104.761 26.5273 104.929 26.2807C105.274 25.7983 105.595 25.1608 105.878 24.4991C106.368 23.3767 106.652 22.5697 106.652 22.5697C107.256 20.6173 109.759 21.5521 109.154 23.5072C109.143 23.5426 109.13 23.5811 109.117 23.6152Z" fill="#FA968C"/>
<path d="M105.106 25.7166C105.108 25.7127 105.11 25.7091 105.113 25.7052C105.418 25.1779 105.701 24.6271 105.962 24.0623C106.221 23.5111 106.484 22.8985 106.669 22.3772L106.678 22.3512C106.693 22.3096 106.709 22.2683 106.728 22.2276C107.071 21.4585 107.878 21.163 108.529 21.568C109.181 21.973 109.432 22.9247 109.088 23.6941C108.767 24.4156 108.455 25.0056 108.099 25.6266C107.858 26.0365 107.602 26.434 107.338 26.8257C107.141 26.578 105.575 25.9154 105.106 25.7166Z" fill="#9D85F0"/>
<path d="M106.412 36.6486C107.573 38.2198 114.272 38.8757 114.272 38.8757C114.766 38.1987 114.043 35.121 113.869 31.9973C113.68 28.6197 113.572 24.8916 113.522 22.8773C113.502 22.0459 112.925 21.3865 112.22 21.3865H107.969C107.314 21.3865 106.768 21.9763 106.715 22.747C106.603 24.3418 106.409 27.114 106.217 29.8315C106.023 32.589 105.409 35.2903 106.412 36.6486Z" fill="#FAB9AF"/>
<path d="M110.277 62.9081L110.267 66.017L110.496 67.5313C110.535 67.7934 110.371 68.036 110.145 68.0441C109.067 68.0831 106.305 68.1692 106.231 68.0278C105.884 67.365 107.453 67.1098 108.602 66.5853C109.75 66.0609 108.958 60.9155 108.958 60.9155L110.277 62.9081Z" fill="#FA968C"/>
<path d="M108.602 66.5856C108.608 66.5828 108.613 66.578 108.619 66.575C108.893 66.6957 109.201 66.7664 109.548 66.7664C109.845 66.7664 110.115 66.7156 110.359 66.6258L110.496 67.5316C110.535 67.7937 110.371 68.0363 110.145 68.0444C109.067 68.0834 106.305 68.1694 106.231 68.0281C105.884 67.3653 107.453 67.1101 108.602 66.5856Z" fill="#F57A2F"/>
<path d="M106.414 37.7818C106.372 39.9427 107.093 53.6524 108.515 53.6904C109.938 53.7285 111.524 40.0806 111.566 37.9196C111.607 35.7587 110.488 33.9761 109.065 33.9379C107.642 33.9 106.455 35.6209 106.414 37.7818Z" fill="#31D9E3"/>
<path d="M110.48 50.8425C110.622 52.032 110.644 59.6531 110.418 63.5248H109.122C108.427 59.7692 107.683 52.4904 107.545 51.3276C107.544 51.3128 107.543 51.2981 107.541 51.2833C106.767 47.2429 106.383 39.375 106.414 37.7816C106.455 35.6207 107.642 33.8998 109.065 33.9379C110.488 33.9759 111.608 35.7587 111.566 37.9196C111.54 39.2764 110.414 50.2793 110.48 50.8425Z" fill="#0B4870"/>
<path d="M113.385 62.9081L113.375 66.017L113.604 67.5313C113.644 67.7934 113.479 68.036 113.254 68.0441C112.175 68.0831 109.413 68.1692 109.339 68.0278C108.992 67.365 110.562 67.1098 111.71 66.5853C112.858 66.0609 112.066 60.9155 112.066 60.9155L113.385 62.9081Z" fill="#FA968C"/>
<path d="M111.71 66.5856C111.716 66.5828 111.722 66.578 111.728 66.575C112.001 66.6957 112.309 66.7664 112.656 66.7664C112.954 66.7664 113.224 66.7156 113.467 66.6258L113.604 67.5316C113.644 67.7937 113.479 68.0363 113.254 68.0444C112.175 68.0834 109.413 68.1694 109.339 68.0281C108.992 67.3653 110.562 67.1101 111.71 66.5856Z" fill="#FF8C46"/>
<path d="M109.522 37.7816C109.481 39.9426 110.201 53.6522 111.624 53.6903C113.047 53.7283 114.325 40.0301 114.367 37.8692C114.408 35.7083 113.596 33.9759 112.174 33.9379C110.751 33.8998 109.564 35.6207 109.522 37.7816Z" fill="#31D9E3"/>
<path d="M113.589 50.8423C113.73 52.0318 113.753 59.653 113.526 63.5246H112.231C111.535 59.769 110.792 52.4903 110.654 51.3274C110.652 51.3126 110.652 51.298 110.65 51.2831C109.876 47.2427 109.184 39.3246 109.215 37.7312C109.256 35.5703 110.751 33.8998 112.174 33.9379C113.596 33.976 114.408 35.7083 114.367 37.8692C114.341 39.2258 113.522 50.2791 113.589 50.8423Z" fill="#0B4870"/>
<path d="M107.929 21.3865H108.62C108.86 22.0435 109.369 22.551 110.158 22.551C110.949 22.551 111.458 22.0435 111.698 21.3865H112.329C112.973 21.3865 113.501 21.9878 113.519 22.7481C113.567 24.7289 113.676 28.546 113.869 31.9973C114.043 35.121 114.766 38.0241 114.272 38.8757C114.272 38.8757 107.573 38.2199 106.412 36.6486C105.409 35.2904 106.023 32.589 106.217 29.8317C106.411 27.0876 106.607 24.288 106.718 22.7009C106.77 21.9569 107.296 21.3865 107.929 21.3865Z" fill="#9D85F0"/>
<path d="M110.342 19.5609L110.421 19.5817C111.028 19.7409 111.629 19.2896 111.764 18.5733L112.126 16.6571L110.947 16.3479L110.342 19.5609Z" fill="#0B4870"/>
<path d="M109.289 21.3864H111.512L110.871 18.7715L109.356 18.9927L109.289 21.3864Z" fill="#FAB9AF"/>
<path d="M109.356 18.9927L110.871 18.7715L111.169 19.99C110.83 20.4414 110.327 21.1417 109.776 21.1417C109.601 21.1417 109.441 21.0834 109.298 20.9761L109.356 18.9927Z" fill="#FA968C"/>
<path d="M109.126 20.3826C110.124 20.6446 111.113 19.9023 111.335 18.7246L111.783 16.3493L108.683 15.5361C108.683 15.5361 108.334 17.3903 108.324 18.7011C108.316 19.6842 108.617 20.2491 109.126 20.3826Z" fill="#FAB9AF"/>
<path d="M111.131 17.456L111.713 17.6089L111.772 17.2972L111.189 17.1443L111.131 17.456Z" fill="#41378C"/>
<path d="M110.894 18.1374C110.807 18.6009 110.924 19.026 111.156 19.0867C111.388 19.1475 111.758 18.6071 111.846 18.1438C111.933 17.6803 111.704 17.4693 111.472 17.4084C111.24 17.3477 110.981 17.6739 110.894 18.1374Z" fill="#FAB9AF"/>
<path d="M108.284 16.4564C108.268 16.1416 108.311 15.8264 108.411 15.5341C108.661 14.8087 109.349 14.4965 109.975 14.7539C110.04 14.7802 110.107 14.8033 110.179 14.822L111.225 15.0959C111.854 15.2606 112.25 15.9956 112.11 16.7373L112.056 17.0251L111.436 17.4494L111.183 17.969L111.142 17.9583C110.943 17.906 110.814 17.6797 110.845 17.4448C110.896 17.057 110.733 16.6781 110.408 16.5929L109.48 16.3494C108.915 16.2011 108.554 16.4819 108.46 16.9809L108.409 17.4104L108.284 16.4564Z" fill="#0B4870"/>
<path d="M111.249 30.551L126.543 130.971" stroke="#0D3848" stroke-width="2" stroke-miterlimit="10"/>
<path d="M113.826 130.971L98.5321 30.551" stroke="#0D3848" stroke-width="2" stroke-miterlimit="10"/>
<path d="M99.5452 35.0242H111.975" stroke="#0D3848" stroke-width="2" stroke-miterlimit="10"/>
<path d="M100.371 41.7432H112.975" stroke="#0D3848" stroke-width="2" stroke-miterlimit="10"/>
<path d="M101.52 48.4626H114.011" stroke="#0D3848" stroke-width="2" stroke-miterlimit="10"/>
<path d="M102.631 55.1816H115.048" stroke="#0D3848" stroke-width="2" stroke-miterlimit="10"/>
<path d="M103.304 61.9009H115.865" stroke="#0D3848" stroke-width="2" stroke-miterlimit="10"/>
<path d="M104.175 68.5002H116.91" stroke="#0D3848" stroke-width="2" stroke-miterlimit="10"/>
<path d="M105.452 75.3394H117.992" stroke="#0D3848" stroke-width="2" stroke-miterlimit="10"/>
<path d="M106.476 82.0583H119.05" stroke="#0D3848" stroke-width="2" stroke-miterlimit="10"/>
<path d="M107.487 88.4082H120.061" stroke="#0D3848" stroke-width="2" stroke-miterlimit="10"/>
<path d="M108.347 94.7581H120.921" stroke="#0D3848" stroke-width="2" stroke-miterlimit="10"/>
<path d="M109.335 101.108H121.909" stroke="#0D3848" stroke-width="2" stroke-miterlimit="10"/>
<path d="M110.295 107.458H122.869" stroke="#0D3848" stroke-width="2" stroke-miterlimit="10"/>
<path d="M111.231 113.807H123.804" stroke="#0D3848" stroke-width="2" stroke-miterlimit="10"/>
<path d="M112.318 120.157H124.892" stroke="#0D3848" stroke-width="2" stroke-miterlimit="10"/>
<path d="M98.532 30.551L83.1081 131.2" stroke="#0D3848" stroke-width="2" stroke-miterlimit="10"/>
<path d="M95.8248 131.2L111.249 30.551" stroke="#0D3848" stroke-width="2" stroke-miterlimit="10"/>
<path d="M110.236 35.0242H97.8421" stroke="#0D3848" stroke-width="2" stroke-miterlimit="10"/>
<path d="M109.409 41.7432H96.8058" stroke="#0D3848" stroke-width="2" stroke-miterlimit="10"/>
<path d="M108.26 48.4626H95.7695" stroke="#0D3848" stroke-width="2" stroke-miterlimit="10"/>
<path d="M107.15 55.1816H94.7333" stroke="#0D3848" stroke-width="2" stroke-miterlimit="10"/>
<path d="M106.257 61.9009H93.697" stroke="#0D3848" stroke-width="2" stroke-miterlimit="10"/>
<path d="M105.414 68.5002H92.6792" stroke="#0D3848" stroke-width="2" stroke-miterlimit="10"/>
<path d="M104.164 75.3394H91.6245" stroke="#0D3848" stroke-width="2" stroke-miterlimit="10"/>
<path d="M103.305 82.0583H90.7311" stroke="#0D3848" stroke-width="2" stroke-miterlimit="10"/>
<path d="M102.337 89.5959H89.7632" stroke="#0D3848" stroke-width="2" stroke-miterlimit="10"/>
<path d="M100.874 97.1331H88.3004" stroke="#0D3848" stroke-width="2" stroke-miterlimit="10"/>
<path d="M99.7826 104.671H87.2088" stroke="#0D3848" stroke-width="2" stroke-miterlimit="10"/>
<path d="M98.7529 112.208H86.1791" stroke="#0D3848" stroke-width="2" stroke-miterlimit="10"/>
<path d="M97.4138 119.818H84.8399" stroke="#0D3848" stroke-width="2" stroke-miterlimit="10"/>
<path d="M111.414 15.5903C111.485 16.2679 109.422 17.1263 108.877 17.2058C108.333 17.2851 107.834 16.8002 107.763 16.1226C107.692 15.445 108.076 14.8315 108.62 14.7522C109.165 14.6727 111.343 14.9127 111.414 15.5903Z" fill="#0B4870"/>
<path d="M82.8957 16.6189C82.2351 16.7567 81.7944 17.5004 81.9112 18.2796L83.0336 25.771L83.4548 25.6831C83.8438 24.7006 84.6882 23.9911 85.7299 24.0023C86.7157 24.0128 87.6237 24.7536 87.9774 25.8396C88.5536 27.6087 87.6129 29.4588 86.1145 29.7713C85.293 29.9427 84.4956 29.6106 83.9466 28.9647L83.5256 29.0526L84.7672 37.3396C84.884 38.119 85.5142 38.6392 86.1745 38.5013L92.5232 37.1768L92.4461 36.6623C91.6133 36.2033 91.0122 35.207 91.0217 33.9775C91.0308 32.8143 91.6586 31.7429 92.5788 31.3257C94.0781 30.646 95.6457 31.756 95.9107 33.524C96.0559 34.4933 95.7745 35.434 95.2271 36.0822L95.3042 36.5967L102.327 35.1316C102.988 34.9938 103.428 34.2501 103.312 33.4707L100.456 14.4109C100.339 13.6315 99.7085 13.1114 99.048 13.2492L82.8957 16.6189Z" fill="#3AAAB1"/>
<path d="M113.772 23.9435C113.088 25.0445 111.914 26.4925 110.509 27.7428C106.212 31.4409 101.613 31.8147 97.8625 27.6288C97.709 27.4576 97.7023 27.172 97.8474 26.9909C97.9715 26.8362 98.1663 26.8079 98.3161 26.9099L98.3334 26.9217C100.779 28.5875 102.969 29.2715 105.726 27.9044C109.341 26.0664 111.906 21.6445 111.636 22.0664C112.079 21.3738 112.914 21.2364 113.501 21.7595C114.083 22.2783 114.202 23.252 113.772 23.9435Z" fill="#FAB9AF"/>
<path d="M109.664 24.6057C110.559 23.6579 111.697 21.7906 111.697 21.7906C111.697 21.7906 112.236 21.0381 113.346 21.5868C114.233 22.0249 114.053 23.2609 114.053 23.2609C114.032 23.4331 113.736 25.4721 111.697 27.2753C111.697 27.2753 109.514 24.7647 109.664 24.6057Z" fill="#9D85F0"/>
<path d="M98.5883 27.1121C98.2945 26.7077 98.2172 25.2896 98.0519 25.2896C97.933 25.2896 97.9119 25.7792 97.9094 26.0544C97.9091 26.0865 97.893 26.1155 97.8681 26.1285C97.8433 26.1416 97.8142 26.1362 97.7939 26.115C97.4605 25.7685 96.5198 24.8079 96.4227 24.8994C96.3245 24.9922 96.8241 25.7087 96.9944 25.9462C96.9995 25.9534 96.9997 25.964 96.9948 25.9714C96.9898 25.9789 96.9811 25.9811 96.9739 25.9768C96.7111 25.8197 95.8528 25.3235 95.8327 25.5358C95.8137 25.7377 96.5599 26.2993 96.8513 26.5104C96.8584 26.5157 96.8613 26.5264 96.8578 26.5354C96.8543 26.5444 96.8457 26.5492 96.8376 26.5464C96.5108 26.4324 95.6697 26.1568 95.6508 26.3362C95.6314 26.519 96.4445 26.9299 96.7369 27.0712C96.7445 27.075 96.7488 27.0847 96.7469 27.0941C96.745 27.1037 96.7375 27.11 96.7292 27.1093C96.441 27.0827 95.6972 27.026 95.8118 27.1614C95.9535 27.3287 97.7449 28.0196 98.1463 28.0196C98.5478 28.0198 98.5883 27.1121 98.5883 27.1121Z" fill="#FAB9AF"/>
<path d="M113.677 51.0962H28.6863V112.118H113.677V51.0962Z" fill="#146BBA"/>
<path d="M109.366 55.6665H32.9972V107.548H109.366V55.6665Z" fill="#F7F7F7"/>
<path d="M57.5391 68.7192H37.97V101.805H57.5391V68.7192Z" stroke="#727272" stroke-miterlimit="10"/>
<path d="M81.5209 68.7192H61.9519V101.805H81.5209V68.7192Z" stroke="#727272" stroke-miterlimit="10"/>
<path d="M105.503 68.7192H85.934V101.805H105.503V68.7192Z" stroke="#727272" stroke-miterlimit="10"/>
<path d="M21.5142 121.155C21.5142 121.155 19.7698 123.524 19.4495 123.901C19.1849 124.213 18.8097 124.326 18.45 124.445C18.3348 124.484 18.1851 124.623 18.0585 124.741C17.9566 124.835 17.9101 124.982 17.9124 125.134C17.9538 127.802 19.9211 129.671 20.0258 129.515C20.2149 129.233 20.0708 128.452 19.6945 127.937C19.3158 127.418 19.224 126.687 19.3929 126.033C19.5273 125.512 19.7731 125.04 20.1068 124.664L21.6237 122.989L21.5142 121.155Z" fill="#FA968C"/>
<path d="M39.3462 124.524L40.7339 127.261C41.1581 128.097 41.3142 129.087 41.1738 130.048C41.1738 130.048 41.1738 130.048 41.1738 130.048C41.0946 130.586 41.4363 131.081 41.8986 131.094C43.3925 131.138 46.2835 131.201 46.3668 131.041C46.7917 130.223 44.9631 129.857 43.5271 129.283C42.5586 128.895 41.3669 125.802 40.6115 123.367L39.479 124.214C39.392 124.283 39.3414 124.401 39.3462 124.524Z" fill="#FA968C"/>
<path d="M43.4989 130.225C44.1124 130.225 44.7387 130.059 45.3174 129.924C45.3836 129.908 45.4529 129.914 45.5166 129.94C46.1862 130.221 46.5922 130.607 46.3669 131.041C46.2763 131.215 42.8756 131.125 41.5474 131.084C41.2696 131.075 41.0662 130.777 41.1139 130.454L41.2008 129.866C41.9519 130.092 42.7216 130.225 43.4989 130.225Z" fill="#0B4870"/>
<path d="M34.3811 93.6247C32.8471 93.2623 31.0145 94.745 30.619 97.0751C30.3918 98.414 30.0571 103.402 30.1046 107.473C30.1229 109.035 29.4873 110.539 28.3561 111.351C28.1718 111.483 28.0029 111.629 27.8561 111.787C27.0991 112.603 23.5784 117.81 21.3716 121.343C21.3026 121.896 21.3719 122.66 21.6336 123.023C24.4582 120.411 29.2477 115.494 30.053 114.626C30.5001 114.144 30.9999 113.58 31.4068 113.025C33.142 111.652 35.9581 101.176 36.325 99.0138C36.7204 96.6836 35.9152 93.9871 34.3811 93.6247Z" fill="#2B6489"/>
<path d="M33.4238 82.1496C34.7418 82.1496 35.8103 80.5232 35.8103 78.5168C35.8103 76.5105 34.7418 74.884 33.4238 74.884C32.1058 74.884 31.0373 76.5105 31.0373 78.5168C31.0373 80.5232 32.1058 82.1496 33.4238 82.1496Z" fill="#131415"/>
<path d="M32.8513 78.8918C32.8133 76.881 31.4337 75.1909 29.7319 75.0762C28.2224 74.9743 26.919 76.0658 26.431 77.6243C26.26 78.1705 25.8064 78.526 25.313 78.5173C25.108 78.5138 24.8973 78.5359 24.6828 78.5878C23.4356 78.8893 22.4674 80.1325 22.336 81.6266C22.2175 82.9744 22.752 84.1836 23.611 84.8734C23.9773 85.1676 24.1858 85.6553 24.2465 86.1733C24.5276 88.57 26.3821 90.3302 28.4976 90.057C30.307 89.8234 31.755 88.0663 31.909 85.9262C32.0034 84.6133 31.6216 83.4094 30.9499 82.5154C32.0946 81.8773 32.8816 80.4928 32.8513 78.8918Z" fill="#1A1C1D"/>
<path opacity="0.4" d="M53.8845 79.3995C53.2816 79.2472 52.7272 79.5502 52.4177 80.0707H52.06V76.1801C52.06 75.4667 51.57 74.8884 50.9654 74.8884H47.2758V74.4562C47.7169 74.091 47.9736 73.4366 47.8446 72.7254C47.7335 72.1129 47.3163 71.6111 46.7988 71.4718C45.8746 71.223 45.0545 72.0448 45.0545 73.0927C45.0545 73.6571 45.2929 74.1549 45.6567 74.4562V74.8884H42.3596C41.755 74.8884 41.265 75.4669 41.265 76.1801V80.0707H41.5101C41.8197 79.5502 42.3739 79.2474 42.9766 79.3993C43.4957 79.5302 43.9211 80.0223 44.0393 80.633C44.2505 81.7237 43.5539 82.6916 42.6656 82.6916C42.1874 82.6916 41.7655 82.4104 41.5101 81.981H41.265V86.3347C41.265 87.0482 41.7552 87.6264 42.3596 87.6264H45.6567V87.327C45.2156 86.9617 44.9589 86.3075 45.0879 85.5962C45.199 84.9836 45.6161 84.4818 46.1336 84.3425C47.0578 84.0937 47.8778 84.9155 47.8778 85.9635C47.8778 86.5278 47.6395 87.0257 47.2756 87.327V87.6264H50.9652C51.5698 87.6264 52.0599 87.0482 52.0599 86.3347V81.981H52.4176C52.6729 82.4104 53.0948 82.6916 53.5731 82.6916C54.4611 82.6916 55.1578 81.7239 54.9467 80.6334C54.8288 80.0229 54.4036 79.5307 53.8845 79.3995Z" fill="#0B5C61"/>
<path d="M33.4238 73.6922C33.4238 73.6922 34.7666 74.6893 34.6033 76.0328C34.6033 76.0328 35.3204 75.4335 35.4826 73.3691C35.5951 71.9389 33.4238 73.6922 33.4238 73.6922Z" fill="#191A1B"/>
<path d="M35.8945 81.8683C35.8945 81.8683 35.894 81.9384 35.8929 82.0696C35.8924 82.2009 35.8937 82.358 35.9016 82.5917C35.9193 83.0452 35.9698 83.6981 36.1125 84.4545C36.1859 84.8306 36.2835 85.2328 36.4204 85.6291C36.5576 86.0218 36.733 86.4208 36.9545 86.7196C37.0638 86.87 37.1836 86.9865 37.2971 87.0545C37.4118 87.1218 37.5138 87.1494 37.6374 87.129C37.8855 87.101 38.2172 86.8186 38.4939 86.456C38.7761 86.0908 39.0227 85.6441 39.2448 85.1889C39.4663 84.7308 39.6604 84.254 39.8361 83.7843C40.1847 82.842 40.4593 81.9255 40.6779 81.1335C40.8977 80.3413 41.0671 79.6728 41.181 79.2033C41.2926 78.7327 41.3563 78.4638 41.3563 78.4638L41.3571 78.4605C41.3877 78.3307 41.5018 78.255 41.6118 78.2913C41.7154 78.3255 41.7782 78.4481 41.7592 78.5707C41.7592 78.5707 41.7157 78.8477 41.6396 79.3325C41.5988 79.5744 41.5522 79.869 41.4909 80.2053C41.4311 80.5421 41.3626 80.9223 41.2762 81.3343C41.1054 82.1589 40.8859 83.118 40.5853 84.1331C40.4329 84.6401 40.2612 85.1613 40.0516 85.6826C39.8393 86.2027 39.6001 86.7275 39.2734 87.2242C39.109 87.4715 38.9235 87.7134 38.6938 87.9292C38.4648 88.1418 38.1848 88.3355 37.8454 88.4195C37.5106 88.512 37.1304 88.4566 36.8288 88.3033C36.5223 88.1512 36.2812 87.9283 36.0861 87.6967C35.6952 87.2287 35.4496 86.723 35.2535 86.2398C35.0598 85.755 34.9236 85.2858 34.8171 84.8491C34.6064 83.9752 34.5292 83.2282 34.4881 82.7049C34.4696 82.4491 34.4599 82.2212 34.456 82.0897C34.4523 81.9585 34.4504 81.8883 34.4504 81.8883C34.4374 81.4179 34.7499 81.024 35.1486 81.0086C35.5473 80.9932 35.8811 81.362 35.8942 81.8325C35.8945 81.8433 35.8945 81.8574 35.8945 81.8683Z" fill="#FAB9AF"/>
<path d="M34.9268 88.8392C35.4641 86.9288 36.5449 82.8833 36.4524 81.5611C36.3931 80.7139 35.7935 80.0652 35.073 80.0652H30.3995C29.6246 80.0652 28.9907 80.7903 28.9682 81.7041C28.9287 83.3014 29.5524 86.9367 29.9031 88.8392H34.9268Z" fill="#FAB9AF"/>
<path d="M34.0054 97.4644C34.5428 99.7545 38.9126 116.034 37.4048 116.527C35.8971 117.019 27.6908 101.125 27.586 98.7521C27.4866 96.5012 28.5922 94.0625 30.1 93.5698C31.6078 93.0772 33.468 95.1742 34.0054 97.4644Z" fill="#FAB9AF"/>
<path d="M40.7625 124.015C40.8183 123.938 40.8312 123.829 40.8019 123.734C39.6334 119.918 38.0654 115.084 37.7309 114.17C37.6926 114.066 37.6522 113.964 37.6098 113.865C37.0392 109.039 34.4142 99.206 34.0055 97.4644C33.4681 95.1742 31.6079 93.0772 30.1001 93.5698C28.5923 94.0625 27.4867 96.5012 27.5862 98.7521C27.6518 100.237 30.8911 107.019 33.6752 111.765C34.2612 112.764 34.6294 113.911 34.8084 115.108C34.9322 115.935 35.1304 116.761 35.3514 117.364C35.6805 118.263 37.6116 121.693 39.3367 124.603C39.3866 124.687 39.4705 124.736 39.5573 124.726C40.0147 124.671 40.4473 124.452 40.7625 124.015Z" fill="#2B6489"/>
<path d="M29.3684 91.261C29.6102 90.46 29.6828 89.603 29.5813 88.7613C29.3455 86.8068 28.9335 83.1248 28.9714 81.562C28.9918 80.7263 29.5718 80.0652 30.2803 80.0652H30.9732C31.2372 80.7876 31.7965 81.3456 32.666 81.3456C33.534 81.3456 34.0935 80.7876 34.3579 80.0652H35.0086C34.3014 81.8519 34.5558 84.2086 35.7723 85.5839C35.5462 86.5268 35.3561 87.4758 35.2138 88.2449C35.021 89.2868 35.1062 90.3723 35.4539 91.3567C36.0513 93.0483 36.5245 95.7609 36.3836 96.8358C31.4673 98.48 28.0676 95.57 28.0676 95.57L29.3684 91.261Z" fill="#B765F1"/>
<path d="M33.4238 80.4449L31.3036 80.182L31.9745 77.4443L33.3458 77.6448L33.4238 80.4449Z" fill="#FAB9AF"/>
<path d="M33.3458 77.6446L31.9745 77.4443L31.7651 78.299C32.0721 78.7073 32.4666 79.5895 32.9656 79.5895C33.1238 79.5895 33.2681 79.5369 33.3978 79.4397L33.3458 77.6446Z" fill="#FA968C"/>
<path d="M33.3931 78.9681C32.9274 78.9679 32.4238 78.693 31.7302 77.9779C31.332 77.5672 31.0368 76.8514 31.0368 76.3676V73.6924H34.5273C34.5273 73.6924 34.7894 75.1129 34.535 76.5225C34.3443 77.5798 33.7592 78.9681 33.3931 78.9681Z" fill="#FAB9AF"/>
<path d="M31.6287 75.8619C31.6287 76.384 31.4169 76.807 31.1558 76.807C30.8946 76.807 30.6067 76.1228 30.6067 75.6008C30.6067 75.0788 30.8948 74.9167 31.1558 74.9167C31.4169 74.9167 31.6287 75.3399 31.6287 75.8619Z" fill="#FAB9AF"/>
<path d="M30.6066 74.0167C30.6066 73.1813 31.1807 72.5041 31.8886 72.5045L33.0666 72.505C33.4035 72.5052 33.7304 72.4011 34.017 72.2093C34.4327 71.9311 34.9582 72.0237 35.2418 72.4776C35.5483 72.9683 35.681 73.6253 34.9037 74.2338C34.5172 74.5362 33.9523 74.2012 33.5759 74.3465C33.5527 74.3454 33.532 74.3409 33.5079 74.3409H32.4695C32.1086 74.3409 31.8325 74.6889 31.8221 75.1147C31.8155 75.3839 31.6284 75.5998 31.3988 75.5998H31.3528L31.1865 74.9711L30.6069 75.8934V74.0167H30.6066Z" fill="#17191B"/>
<path d="M42.0753 76.9706C42.0753 76.9706 42.3192 78.3926 41.976 78.6243C41.633 78.8561 41.3666 78.9374 41.062 78.3607C40.7576 77.7839 40.5726 76.8217 40.5598 76.2183C40.5467 75.6151 40.8868 74.5933 40.9843 74.5123C41.3398 74.2171 41.2659 75.3129 41.2521 75.8454C41.2383 76.3781 41.2677 76.9811 41.4866 76.9164C41.7057 76.8517 41.6671 75.8294 41.8974 75.6573C42.1278 75.4856 42.0753 76.9706 42.0753 76.9706Z" fill="#FAB9AF"/>
<path d="M47.2829 86.6418C47.2829 86.6418 46.0695 86.408 45.8863 86.8214C45.7031 87.2349 45.6443 87.5519 46.1441 87.889C46.644 88.2264 47.4659 88.4079 47.9773 88.4004C48.4886 88.3929 49.3411 87.9532 49.4059 87.835C49.6424 87.4049 48.7172 87.5334 48.2668 87.5697C47.8163 87.6061 47.3043 87.5945 47.3509 87.3337C47.3973 87.0729 48.2645 87.0798 48.4015 86.8017C48.5385 86.5239 47.2829 86.6418 47.2829 86.6418Z" fill="#FAB9AF"/>
<path d="M34.2671 73.6455C34.1501 74.2568 34.3227 74.5909 32.625 75.5449C30.9274 76.4987 30.39 76.0913 29.8597 77.1182C29.8597 77.1182 30.0916 75.417 31.0292 74.8331C31.9669 74.2493 33.5931 73.8677 34.1146 72.5156C34.1147 72.5154 34.3472 73.2278 34.2671 73.6455Z" fill="#151617"/>
<path d="M30.594 81.7272C30.594 81.7272 30.5983 81.757 30.5995 81.7591C30.6018 81.7696 30.6045 81.7825 30.6076 81.7977C30.6116 81.817 30.6162 81.8397 30.6242 81.869C30.6517 81.9805 30.7025 82.1581 30.7924 82.3816C30.8822 82.6047 31.0111 82.873 31.19 83.1637C31.3675 83.455 31.6017 83.7638 31.8846 84.0751C32.0228 84.2345 32.1852 84.3813 32.3489 84.5386C32.5225 84.6835 32.6976 84.8405 32.8951 84.9781C33.0842 85.1285 33.2983 85.2517 33.5077 85.3951C33.6172 85.4585 33.7279 85.5226 33.8396 85.5873C33.9507 85.6537 34.065 85.7167 34.1843 85.7723C34.3022 85.8308 34.4212 85.8899 34.541 85.9493C34.6627 86.0045 34.7878 86.0545 34.9124 86.1082C35.1596 86.2207 35.421 86.3054 35.6816 86.3997C35.9417 86.4959 36.2137 86.5615 36.482 86.6453C36.7526 86.7203 37.0283 86.7826 37.3024 86.8525C37.5787 86.9123 37.8574 86.9618 38.1342 87.0172C38.4121 87.0661 38.6916 87.1 38.9678 87.1422C39.2438 87.187 39.5214 87.2015 39.794 87.2322C39.9307 87.2452 40.0666 87.2581 40.2015 87.2708C40.3368 87.2783 40.4713 87.2857 40.6046 87.293C40.8714 87.305 41.1336 87.3321 41.3911 87.3363C41.6489 87.3423 41.9012 87.3483 42.1467 87.3539C42.6382 87.3668 43.1037 87.3455 43.5339 87.3436C43.9643 87.3261 44.3589 87.31 44.7086 87.2958C45.0591 87.2862 45.3634 87.2523 45.615 87.2363C46.1182 87.2011 46.4058 87.181 46.4058 87.181L46.4115 87.1807C46.5255 87.1726 46.6233 87.2751 46.63 87.4096C46.6364 87.5352 46.5598 87.6445 46.4568 87.6648C46.4568 87.6648 46.1702 87.7197 45.6684 87.8157C45.4168 87.8592 45.1127 87.9263 44.7606 87.9745C44.4086 88.0246 44.0122 88.0947 43.5773 88.1461C43.1416 88.1881 42.6703 88.253 42.1688 88.286C41.9179 88.303 41.66 88.3206 41.3965 88.3386C41.1329 88.3572 40.8623 88.3582 40.5876 88.3658C40.4501 88.3685 40.3114 88.3711 40.1717 88.3737C40.0319 88.3709 39.891 88.3681 39.7492 88.3655C39.4656 88.3548 39.1781 88.3606 38.8882 88.3358C38.5983 88.3137 38.3056 88.2997 38.0118 88.27C37.7184 88.234 37.423 88.2035 37.128 88.162C36.8338 88.1093 36.5381 88.0671 36.245 88.0053C35.9533 87.9321 35.6601 87.8772 35.3733 87.7891C35.0862 87.7028 34.7995 87.626 34.5212 87.5178C34.3815 87.4666 34.242 87.4188 34.1047 87.3651C33.9683 87.3065 33.8328 87.248 33.6985 87.1902C33.5635 87.1351 33.4316 87.0715 33.3021 87.0035C33.1723 86.9369 33.0436 86.8709 32.9163 86.8057C32.6667 86.6577 32.4204 86.519 32.1914 86.3519C31.9573 86.1983 31.7414 86.0197 31.5302 85.8522C31.326 85.6698 31.1261 85.4977 30.9482 85.3064C30.5871 84.9342 30.279 84.5508 30.0423 84.1696C29.8025 83.7918 29.6225 83.4307 29.4923 83.117C29.3608 82.8039 29.2839 82.5354 29.2359 82.3404C29.19 82.1594 29.165 81.9811 29.169 82.006C29.1037 81.5418 29.3697 81.103 29.7631 81.026C30.1569 80.9491 30.5287 81.263 30.594 81.7272Z" fill="#FAB9AF"/>
<path d="M33.9407 73.7593C33.9407 73.7593 34.005 75.818 35.5296 76.8067C35.5296 76.8067 34.8578 75.2508 34.9036 74.2335C34.9492 73.2161 33.8399 73.0563 33.9407 73.7593Z" fill="#141515"/>
<path d="M17.1837 125.593C17.1264 125.424 17.1806 125.232 17.3126 125.14C17.4205 125.064 17.7102 124.853 17.9279 124.695C18.0224 124.626 18.1409 124.699 18.1535 124.83C18.2948 126.303 18.8608 127.638 19.9227 128.275C20.1998 128.711 20.2392 129.457 20.0895 129.679C20.0544 129.732 19.5571 129.538 19.1399 128.974C17.2875 126.47 17.1837 125.593 17.1837 125.593Z" fill="#0B4870"/>
<path d="M129.231 118.198C129.158 118.18 129.086 118.163 129.022 118.147C128.848 118.103 128.625 118.108 128.428 118.127C128.099 118.16 127.769 118.089 127.472 117.917L126.243 117.202C125.724 116.9 125.168 117.526 125.399 118.152C125.418 118.205 125.455 118.248 125.5 118.272L126.954 119.032C127.375 119.253 127.746 119.588 128.036 120.011L128.448 120.611C129.325 119.965 129.203 118.797 129.231 118.198Z" fill="#FFDA9A"/>
<path d="M128.698 123.191C128.758 122.368 128.441 121.004 128.292 120.547C128.667 119.734 128.68 118.861 128.452 118.075C128.644 118.057 128.859 118.053 129.028 118.095C129.261 118.154 129.799 118.252 130.02 118.302C130.176 118.338 130.286 118.502 130.28 118.69C130.28 118.69 129.584 124.631 129.43 124.518C129.162 124.322 128.648 123.894 128.698 123.191Z" fill="#0B4870"/>
<path d="M102.427 112.32C102.037 114.142 99.2905 128.478 99.8331 128.492C100.304 128.503 105.302 115.116 105.693 113.293C106.083 111.471 105.668 109.776 104.766 109.507C103.865 109.238 102.817 110.497 102.427 112.32Z" fill="#41B4E6"/>
<path d="M108.442 97.7617C107.122 99.6608 101.221 112.112 102.472 113.323C103.722 114.533 111.902 104.224 113.222 102.325C114.543 100.426 114.347 97.7251 113.097 96.5146C111.847 95.3041 109.762 95.8625 108.442 97.7617Z" fill="#41B4E6"/>
<path d="M100.522 130.483C100.526 130.395 100.53 130.309 100.534 130.231C100.545 130.021 100.509 129.762 100.464 129.536C100.388 129.156 100.399 128.76 100.5 128.389L100.919 126.85C101.096 126.2 100.49 125.642 99.9989 126.003C99.9568 126.034 99.9262 126.082 99.9128 126.139L99.4887 127.947C99.3657 128.471 99.139 128.953 98.8272 129.354L98.3845 129.923C99.0546 130.851 100.016 130.538 100.522 130.483Z" fill="#FFDA9A"/>
<path d="M96.2581 130.594C96.9572 130.542 98.0544 129.973 98.4151 129.732C99.1517 130.05 99.8854 129.937 100.511 129.556C100.554 129.778 100.589 130.027 100.578 130.231C100.564 130.512 100.56 131.154 100.551 131.42C100.544 131.607 100.422 131.759 100.264 131.78C100.264 131.78 95.1811 131.839 95.2532 131.642C95.3781 131.301 95.6617 130.638 96.2581 130.594Z" fill="#0B4870"/>
<path d="M105.693 113.293C105.451 114.419 102.467 123.152 100.862 127.22C100.379 127.002 100.109 127.02 99.6155 126.837C100.244 123.016 101.369 114.486 101.739 112.646C101.901 110.081 107.218 99.5223 108.442 97.7617C109.763 95.8625 111.847 95.3041 113.097 96.5146C114.348 97.7251 114.543 100.426 113.222 102.325C112.368 103.554 105.856 112.532 105.693 113.293Z" fill="#0B4870"/>
<path d="M112.094 113.367C112.094 113.367 112.093 113.366 112.093 113.366C112.091 113.363 112.09 113.36 112.089 113.357C112.036 113.237 111.996 113.116 111.967 112.995C111.086 109.915 111.338 98.7323 111.624 96.4634C111.7 95.8604 111.852 95.3018 112.057 94.7986L114.865 96.6018C115.571 97.5438 116.403 98.3768 117.352 99.0528C117.495 99.1544 117.304 98.7141 117.45 98.8043C117.045 101.746 116.517 107.582 116.319 110.501C116.274 111.164 116.593 111.785 117.112 112.043C119.729 113.34 124.397 115.861 126.998 117.518L126.909 119.255C123.112 118.317 115.528 115.656 114.376 115.259C113.29 114.884 112.445 114.147 112.094 113.367Z" fill="#0B4870"/>
<path d="M109.01 85.1282C109.01 85.1282 109.009 85.1481 109.008 85.1867C109.006 85.2092 109.005 85.2373 109.003 85.2707C109.001 85.2994 108.999 85.3326 108.996 85.3701C108.985 85.5197 108.964 85.7312 108.926 85.9944C108.891 86.2586 108.834 86.5736 108.754 86.9306C108.676 87.2878 108.562 87.6823 108.42 88.1042C108.274 88.5244 108.088 88.9674 107.864 89.4176C107.631 89.8629 107.356 90.3114 107.032 90.7359C106.952 90.8424 106.863 90.9418 106.778 91.0459L106.648 91.2006L106.508 91.3457C106.414 91.4415 106.322 91.5405 106.225 91.6342C106.124 91.7226 106.023 91.8114 105.922 91.9007C105.823 91.9931 105.715 92.0711 105.608 92.1504C105.5 92.2286 105.395 92.313 105.284 92.3856C105.057 92.5191 104.838 92.6741 104.601 92.7802L104.252 92.9529C104.134 93.0039 104.014 93.0474 103.896 93.0945C103.777 93.1378 103.661 93.1929 103.54 93.2256C103.421 93.2606 103.301 93.2955 103.182 93.3302C102.946 93.4082 102.706 93.4434 102.472 93.4933C102.238 93.5486 102.005 93.5634 101.776 93.5927C101.662 93.6041 101.549 93.6225 101.437 93.6259C101.324 93.6294 101.213 93.633 101.104 93.6366C100.884 93.6431 100.67 93.6551 100.462 93.6399C100.254 93.6311 100.052 93.6225 99.8571 93.614C99.6632 93.5929 99.476 93.5726 99.2961 93.5529C98.9361 93.5225 98.6118 93.4513 98.3234 93.4005C98.1794 93.3729 98.0443 93.3517 97.9207 93.3242C97.7974 93.294 97.6843 93.2664 97.5821 93.2413C97.1741 93.1414 96.941 93.0842 96.941 93.0842C96.8256 93.0559 96.7514 92.9226 96.7754 92.7864C96.7979 92.6584 96.8992 92.5734 97.0071 92.5871L97.0182 92.5886C97.0182 92.5886 97.25 92.6192 97.6557 92.6726C97.7569 92.6859 97.8689 92.7007 97.991 92.7169C98.113 92.7306 98.2457 92.7364 98.3868 92.7476C98.6693 92.7671 98.9871 92.7975 99.3336 92.7937C99.5065 92.7956 99.6867 92.7975 99.8731 92.7995C100.059 92.789 100.25 92.7784 100.447 92.7673C100.645 92.7628 100.845 92.7309 101.049 92.7047C101.151 92.6914 101.254 92.6781 101.359 92.6644C101.463 92.6514 101.566 92.6225 101.67 92.6032C101.879 92.5573 102.093 92.5258 102.302 92.4559C102.511 92.3912 102.727 92.3417 102.933 92.2521C103.037 92.2117 103.141 92.1714 103.246 92.1309C103.352 92.0931 103.45 92.0342 103.552 91.9871C103.653 91.9365 103.756 91.8896 103.856 91.8362L104.148 91.6594C104.347 91.5514 104.523 91.3991 104.71 91.2714C104.8 91.2028 104.884 91.1237 104.972 91.0511C105.058 90.9774 105.146 90.906 105.224 90.8214C105.304 90.7406 105.384 90.6604 105.463 90.5803C105.539 90.4957 105.611 90.4071 105.685 90.3221L105.794 90.1939L105.893 90.057C105.959 89.9651 106.028 89.8789 106.089 89.7857C106.337 89.415 106.54 89.0263 106.717 88.6479C106.884 88.2623 107.021 87.8846 107.127 87.5261C107.228 87.1656 107.308 86.8301 107.363 86.5283C107.418 86.2269 107.456 85.9616 107.477 85.7443C107.501 85.527 107.51 85.3575 107.514 85.2474C107.515 85.2201 107.516 85.1959 107.517 85.1749C107.517 85.1586 107.517 85.1449 107.517 85.1338C107.517 85.1051 107.518 85.0903 107.518 85.0903L107.518 85.0751C107.521 84.5884 107.859 84.1974 108.271 84.2019C108.684 84.2063 109.015 84.6043 109.011 85.0911C109.011 85.1023 109.011 85.1169 109.01 85.1282Z" fill="#FA968C"/>
<path d="M105.158 87.7099C105.417 87.052 106.424 84.4862 106.549 83.8613L106.555 83.8299C106.565 83.7801 106.577 83.7302 106.591 83.6807C106.855 82.743 107.713 82.2354 108.507 82.5467C109.302 82.8581 109.732 83.8706 109.468 84.8083C109.221 85.6877 108.964 86.4176 108.663 87.1918C108.457 87.7041 108.232 88.206 107.998 88.7027C107.738 88.4683 105.156 87.7148 105.158 87.7099Z" fill="#1F72A0"/>
<path d="M108.503 99.9202C109.758 101.142 114.994 100.894 116.937 100.756C117.425 100.722 117.794 100.199 117.713 99.6294C117.506 98.1754 116.649 95.6724 116.134 93.0727C115.392 89.3267 114.684 85.1702 114.312 82.9224C114.158 81.9953 113.407 81.3814 112.618 81.5357L107.851 82.4661C107.116 82.6095 106.597 83.3914 106.658 84.2672C106.783 86.0801 107.001 89.2303 107.214 92.3188C107.429 95.4534 107.165 98.6167 108.503 99.9202Z" fill="#FFDA9A"/>
<path d="M107.806 82.475L108.58 82.3239C108.953 83.0079 109.603 83.4658 110.489 83.2931C111.376 83.12 111.866 82.4396 112.032 81.6502L112.739 81.5122C113.462 81.3712 114.148 81.9311 114.288 82.7795C114.654 84.9905 115.376 89.2458 116.134 93.0729C116.657 95.7142 117.518 98.1418 117.711 99.6176C117.787 100.196 117.419 100.722 116.924 100.757C114.971 100.895 109.755 101.139 108.504 99.9202C107.165 98.6167 107.43 95.4534 107.214 92.3189C106.999 89.1993 106.779 86.0167 106.654 84.2127C106.596 83.3675 107.096 82.6134 107.806 82.475Z" fill="#1F72A0"/>
<path d="M110.337 79.4052L110.426 79.375C111.106 79.1451 111.498 78.309 111.303 77.5075L110.782 75.363L109.463 75.8095L110.337 79.4052Z" fill="#0B4870"/>
<path d="M109.268 82.4776L111.567 82.2787L111.648 81.8885L110.302 79.0359L108.706 79.838L109.268 82.4776Z" fill="#FFDA9A"/>
<path d="M108.706 79.838L110.302 79.0359L110.843 80.1817C110.592 80.8001 110.287 81.4858 109.685 81.6896C109.494 81.7542 109.279 81.7357 109.094 81.6714L108.706 79.838Z" fill="#FA968C"/>
<path d="M109.502 81.0046C110.619 80.6264 111.264 79.2517 110.944 77.9338L110.298 75.2754L106.829 76.4497C106.829 76.4497 107.334 78.5248 107.927 79.8399C108.372 80.8263 108.933 81.1974 109.502 81.0046Z" fill="#FFDA9A"/>
<path d="M110.164 76.8091L110.816 76.5884L110.731 76.2396L110.079 76.4604L110.164 76.8091Z" fill="#CD5014"/>
<path d="M110.234 77.63C110.36 78.1486 110.672 78.4979 110.932 78.41C111.192 78.3221 111.312 77.5454 111.186 77.0266C111.06 76.508 110.735 76.4437 110.475 76.5316C110.216 76.6196 110.108 77.1114 110.234 77.63Z" fill="#FFDA9A"/>
<path d="M106.854 77.6242C106.693 77.3206 106.591 76.9781 106.557 76.6218C106.557 76.6218 106.254 75.4396 106.594 75.0802C106.903 74.7528 107.579 74.8095 107.994 74.778C108.298 74.7549 109.164 74.381 109.164 74.381C109.868 74.1425 110.602 74.6223 110.804 75.4524L110.882 75.7743L110.458 76.5954L110.445 77.276L110.399 77.2916C110.176 77.3671 109.943 77.2237 109.866 76.9693C109.739 76.5491 109.402 76.2757 109.038 76.3987L107.999 76.7505C107.367 76.9646 107.135 77.4765 107.271 78.0346L107.418 78.4959L106.854 77.6242Z" fill="#0B4870"/>
<path d="M98.205 83.8908L97.9942 83.2538C98.3597 82.6047 98.4776 81.7754 98.2627 80.9879C97.8863 79.6085 96.5031 78.8168 95.353 79.3249C94.1836 79.8417 93.6021 81.3852 94.0549 82.7532C94.3303 83.5849 94.9247 84.1568 95.608 84.3537L95.8189 84.9906L89.9315 87.7047C89.4186 87.9411 89.1652 88.6234 89.3655 89.2287L91.6448 96.1129L91.3316 96.2573C90.7815 95.8261 90.0787 95.6869 89.4113 95.9404C88.2423 96.3846 87.5714 98.0168 88.002 99.3739C88.4399 100.754 89.748 101.44 90.9072 100.906C91.612 100.581 92.0967 99.8792 92.2635 99.073L92.5767 98.9286L94.8558 105.813C95.0562 106.418 95.6344 106.717 96.1473 106.481L110.202 100.002C110.715 99.7656 110.968 99.0833 110.768 98.4781L105.277 81.8939C105.077 81.2886 104.499 80.9896 103.986 81.226L98.205 83.8908Z" fill="#0B4870"/>
<path d="M114.914 83.1548C115.114 87.606 113.002 92.8862 108.556 94.1726C105.022 95.2037 101.22 94.0515 97.866 92.3629C97.6452 92.2517 97.5425 91.9502 97.6367 91.6896C97.7197 91.4603 97.9275 91.3388 98.1268 91.3888L98.1325 91.3903C102.799 92.5584 108.762 93.324 110.969 88.305C112.088 85.8373 111.886 82.8504 111.891 83.2725C111.866 80.9593 114.808 80.8464 114.914 83.1548Z" fill="#FFDA9A"/>
<path d="M111.436 86.6919C111.789 84.8057 111.838 83.2783 111.839 83.2502L111.839 83.3038L112.094 82.1036C112.094 82.1036 112.581 81.1419 113.912 81.5141C114.975 81.8113 114.968 83.2367 114.968 83.2367C114.971 83.4343 115.355 84.8595 114.313 87.9538C114.313 87.9538 111.386 86.9561 111.436 86.6919Z" fill="#1F72A0"/>
<path d="M98.7535 91.9673C98.4597 91.5629 98.3823 90.1448 98.217 90.1448C98.0982 90.1448 98.077 90.6344 98.0745 90.9096C98.0742 90.9417 98.0581 90.9708 98.0332 90.9837C98.0084 90.9968 97.9793 90.9916 97.959 90.9702C97.6256 90.6237 96.6849 89.6631 96.588 89.7546C96.4898 89.8475 96.9894 90.5639 97.1597 90.8015C97.1648 90.8086 97.165 90.8191 97.16 90.8266C97.1551 90.8341 97.1464 90.8363 97.1392 90.832C96.8764 90.6749 96.018 90.1786 95.998 90.391C95.9789 90.593 96.7251 91.1545 97.0165 91.3657C97.0237 91.3709 97.0266 91.3816 97.0231 91.3906C97.0197 91.3996 97.011 91.4045 97.0029 91.4015C96.676 91.2875 95.835 91.0118 95.8161 91.1915C95.7967 91.3743 96.6098 91.7851 96.9021 91.9265C96.9098 91.9302 96.9141 91.94 96.9122 91.9493C96.9102 91.9589 96.9028 91.9653 96.8945 91.9645C96.6063 91.9379 95.8625 91.8815 95.977 92.0167C96.1186 92.1837 97.9102 92.8748 98.3116 92.8748C98.7129 92.8748 98.7535 91.9673 98.7535 91.9673Z" fill="#FFDA9A"/>
<path d="M109.366 55.6665H32.9972V56.5114H109.366V55.6665Z" fill="#0B4870"/>
<path d="M79.3345 71.5593H63.9321V75.8192H79.3345V71.5593Z" fill="#13AC9A"/>
<path opacity="0.4" d="M79.3345 77.949H63.9321V82.2088H79.3345V77.949Z" fill="#146BBA"/>
<path d="M79.3345 84.3381H63.9321V88.5979H79.3345V84.3381Z" fill="#13AC9A"/>
<path opacity="0.4" d="M79.3345 90.7278H63.9321V94.9876H79.3345V90.7278Z" fill="#146BBA"/>
<path opacity="0.4" d="M105.567 60.4841H37.9407V65.1698H105.567V60.4841Z" fill="#146BBA"/>
<path d="M69.0336 62.7414H48.332C47.2853 62.7414 46.4366 61.7401 46.4366 60.5049V54.8681C46.4366 53.6328 47.2852 52.6316 48.332 52.6316H69.0336C70.0802 52.6316 70.9288 53.6328 70.9288 54.8681V60.5049C70.9289 61.7399 70.0804 62.7414 69.0336 62.7414Z" fill="#13AC9A"/>
<path d="M67.2862 62.7146L65.8944 61.0723L64.5026 62.7146L65.8944 64.3568L67.2862 62.7146Z" fill="#13AC9A"/>
<path d="M67.4867 55.1909H49.3459V55.9837H67.4867V55.1909Z" fill="#F7F7F7"/>
<path d="M67.4867 57.2922H49.3459V58.085H67.4867V57.2922Z" fill="#F7F7F7"/>
<path d="M67.4867 59.3933H49.3459V60.1861H67.4867V59.3933Z" fill="#F7F7F7"/>
<path d="M66.7466 95.8648V93.5422H64.7784V95.8648H66.7466Z" fill="#13AC9A"/>
<path d="M60.5371 110.227C64.803 110.227 68.2612 106.146 68.2612 101.112C68.2612 96.0784 64.803 91.9978 60.5371 91.9978C56.2712 91.9978 52.813 96.0784 52.813 101.112C52.813 106.146 56.2712 110.227 60.5371 110.227Z" fill="#13AC9A"/>
<path d="M58.2094 101.139C58.2094 101.549 57.9282 101.88 57.5815 101.88C57.2346 101.88 56.9535 101.549 56.9535 101.139C56.9535 100.73 57.2346 100.398 57.5815 100.398C57.9283 100.398 58.2094 100.73 58.2094 101.139Z" fill="#F7F7F7"/>
<path d="M60.963 101.139C60.963 101.549 60.6819 101.88 60.335 101.88C59.9881 101.88 59.707 101.549 59.707 101.139C59.707 100.73 59.9881 100.398 60.335 100.398C60.6819 100.398 60.963 100.73 60.963 101.139Z" fill="#F7F7F7"/>
<path d="M63.7165 101.139C63.7165 101.549 63.4354 101.88 63.0885 101.88C62.7417 101.88 62.4606 101.549 62.4606 101.139C62.4606 100.73 62.7418 100.398 63.0885 100.398C63.4354 100.398 63.7165 100.73 63.7165 101.139Z" fill="#F7F7F7"/>
</svg>
